<svg width="79" height="78" xmlns="http://www.w3.org/2000/svg" xmlns:xlink="http://www.w3.org/1999/xlink" overflow="hidden"><defs><clipPath id="clip0"><rect x="376" y="306" width="79" height="78"/></clipPath></defs><g clip-path="url(#clip0)" transform="translate(-376 -306)"><path d="M18.6875 11.375 59.3125 11.375 59.3125 66.625 18.6875 66.625 18.6875 11.375ZM13.8125 71.5 64.1875 71.5 64.1875 6.5 13.8125 6.5 13.8125 71.5Z" fill="#005467" transform="matrix(1.01282 0 0 1 376 306)"/><path d="M40.625 18.6875 54.4375 18.6875 54.4375 21.9375 40.625 21.9375Z" fill="#005467" transform="matrix(1.01282 0 0 1 376 306)"/><path d="M40.625 31.6875 54.4375 31.6875 54.4375 34.9375 40.625 34.9375Z" fill="#005467" transform="matrix(1.01282 0 0 1 376 306)"/><path d="M40.625 57.6875 54.4375 57.6875 54.4375 60.9375 40.625 60.9375Z" fill="#005467" transform="matrix(1.01282 0 0 1 376 306)"/><path d="M40.625 44.6875 54.4375 44.6875 54.4375 47.9375 40.625 47.9375Z" fill="#005467" transform="matrix(1.01282 0 0 1 376 306)"/><path d="M35.5875 16.9 33.3125 14.625 27.95 19.9875 25.8375 17.875 23.5625 20.15 27.95 24.5375Z" fill="#005467" transform="matrix(1.01282 0 0 1 376 306)"/><path d="M35.5875 29.9 33.3125 27.625 27.95 32.9875 25.8375 30.875 23.5625 33.15 27.95 37.5375Z" fill="#005467" transform="matrix(1.01282 0 0 1 376 306)"/><path d="M35.5875 42.9 33.3125 40.625 27.95 45.9875 25.8375 43.875 23.5625 46.15 27.95 50.5375Z" fill="#005467" transform="matrix(1.01282 0 0 1 376 306)"/><path d="M35.5875 55.7375 33.3125 53.4625 27.95 58.825 25.8375 56.7125 23.5625 58.9875 27.95 63.375Z" fill="#005467" transform="matrix(1.01282 0 0 1 376 306)"/></g></svg>