<svg width="36" height="36" xmlns="http://www.w3.org/2000/svg" xmlns:xlink="http://www.w3.org/1999/xlink" overflow="hidden"><defs><clipPath id="clip0"><rect x="1092" y="67" width="36" height="36"/></clipPath></defs><g clip-path="url(#clip0)" transform="translate(-1092 -67)"><path d="M1095 74.5 1095 95.5 1125 95.5 1125 74.5 1095 74.5ZM1110.53 87.5875C1110.22 87.8875 1109.78 87.8875 1109.47 87.5875L1098.38 76.75 1121.66 76.75 1110.53 87.5875ZM1104.56 84.8875 1097.25 92.2375 1097.25 77.725 1104.56 84.8875ZM1105.65 85.9375 1108.46 88.675C1108.91 89.0875 1109.47 89.3125 1110.04 89.3125 1110.6 89.3125 1111.16 89.0875 1111.61 88.675L1114.43 85.9375 1121.7 93.25 1098.34 93.25 1105.65 85.9375ZM1115.44 84.8875 1122.75 77.7625 1122.75 92.2 1115.44 84.8875Z" fill="#FFFFFF"/></g></svg>