<svg width="79" height="79" xmlns="http://www.w3.org/2000/svg" xmlns:xlink="http://www.w3.org/1999/xlink" overflow="hidden"><defs><clipPath id="clip0"><rect x="602" y="302" width="79" height="79"/></clipPath></defs><g clip-path="url(#clip0)" transform="translate(-602 -302)"><path d="M633.271 354.667 649.729 354.667C651.128 354.667 652.198 355.736 652.198 357.135 652.198 358.534 651.128 359.604 649.729 359.604L633.271 359.604C631.872 359.604 630.802 358.534 630.802 357.135 630.802 355.736 631.872 354.667 633.271 354.667Z" fill="#FFFFFF"/><path d="M633.271 362.896 649.729 362.896C651.128 362.896 652.198 363.966 652.198 365.365 652.198 366.764 651.128 367.833 649.729 367.833L633.271 367.833C631.872 367.833 630.802 366.764 630.802 365.365 630.802 363.966 631.872 362.896 633.271 362.896Z" fill="#FFFFFF"/><path d="M636.151 371.125C636.398 373.923 638.702 376.062 641.5 376.062 644.298 376.062 646.602 373.923 646.849 371.125L636.151 371.125Z" fill="#FFFFFF"/><path d="M641.5 306.938C641.5 306.938 641.5 306.938 641.5 306.938 641.5 306.938 641.5 306.938 641.5 306.938 629.815 307.02 620.351 316.401 620.104 328.086L620.104 328.827C620.186 331.378 620.68 333.847 621.585 336.233 622.491 338.455 623.725 340.513 625.289 342.323 627.264 344.462 629.403 348.659 630.308 350.47 630.555 351.046 631.131 351.375 631.79 351.375L651.21 351.375C651.869 351.375 652.445 351.046 652.692 350.47 653.597 348.659 655.736 344.462 657.711 342.323 659.275 340.513 660.592 338.455 661.415 336.233 662.32 333.847 662.814 331.378 662.896 328.827L662.896 328.086C662.649 316.401 653.185 307.02 641.5 306.938ZM657.958 328.745C657.876 330.72 657.465 332.695 656.806 334.505 656.148 336.151 655.243 337.715 654.008 339.031 652.116 341.335 650.47 343.804 649.235 346.438L641.5 346.438 633.847 346.438C632.53 343.804 630.884 341.335 629.074 339.031 627.922 337.715 626.934 336.151 626.276 334.505 625.535 332.695 625.206 330.72 625.124 328.745L625.124 328.086C625.289 319.117 632.612 311.875 641.582 311.793L641.582 311.793 641.582 311.793C641.582 311.793 641.582 311.793 641.582 311.793 641.582 311.793 641.582 311.793 641.582 311.793L641.582 311.793 641.582 311.793C650.552 311.875 657.876 319.034 658.041 328.086L658.041 328.745Z" fill="#FFFFFF"/></g></svg>