<svg width="1747" height="1688" xmlns="http://www.w3.org/2000/svg" xmlns:xlink="http://www.w3.org/1999/xlink" overflow="hidden"><defs><filter id="fx0" x="-10%" y="-10%" width="120%" height="120%" filterUnits="userSpaceOnUse" primitiveUnits="userSpaceOnUse"><feComponentTransfer color-interpolation-filters="sRGB"><feFuncR type="discrete" tableValues="0 0"/><feFuncG type="discrete" tableValues="0 0"/><feFuncB type="discrete" tableValues="0 0"/><feFuncA type="linear" slope="0.4" intercept="0"/></feComponentTransfer><feGaussianBlur stdDeviation="2.75533 2.75533"/></filter><clipPath id="clip1"><rect x="110" y="82" width="1747" height="1688"/></clipPath><clipPath id="clip2"><rect x="98" y="74" width="1560" height="152"/></clipPath><clipPath id="clip3"><rect x="0" y="0" width="1750" height="347"/></clipPath></defs><g clip-path="url(#clip1)" transform="translate(-110 -82)"><rect x="168" y="95.9999" width="1641" height="1641" stroke="#E0AA4E" stroke-width="27.5" stroke-miterlimit="8" fill="#005467"/><path d="M528.945 664.648C477.921 612.477 478.851 528.82 531.022 477.796L531.022 477.796C583.193 426.772 666.85 427.702 717.874 479.873L1028.36 797.339C1079.38 849.51 1078.45 933.167 1026.28 984.191L1026.28 984.19C974.111 1035.21 890.455 1034.28 839.431 982.113Z" stroke="#FFFFFF" stroke-width="27.5" stroke-miterlimit="8" fill="none" fill-rule="evenodd"/><path d="M1275.3 571.026C1340.28 537.822 1419.88 563.584 1453.08 628.567L1453.08 628.567C1486.29 693.55 1460.52 773.146 1395.54 806.35L1000.12 1008.4C935.132 1041.6 855.536 1015.84 822.332 950.86L822.333 950.86C789.128 885.877 814.89 806.281 879.873 773.077Z" stroke="#FFFFFF" stroke-width="27.5" stroke-miterlimit="8" fill="none" fill-rule="evenodd"/><path d="M1205 682C1205 609.099 1264.1 550 1337 550L1337 550C1409.9 550 1469 609.099 1469 682L1469 1292C1469 1364.9 1409.9 1424 1337 1424L1337 1424C1264.1 1424 1205 1364.9 1205 1292Z" stroke="#FFFFFF" stroke-width="27.5" stroke-miterlimit="8" fill="none" fill-rule="evenodd"/><path d="M485 568C485 495.098 544.099 436 617.001 436L617.001 436C689.902 436 749.001 495.098 749.001 568L749 1292C749 1364.9 689.901 1424 617 1424L617.001 1424C544.099 1424 485 1364.9 485 1292Z" stroke="#FFFFFF" stroke-width="27.5" stroke-miterlimit="8" fill="none" fill-rule="evenodd"/><path d="M485 297C485 224.098 544.098 165 617 165 689.902 165 749 224.098 749 297 749 369.902 689.902 429 617 429 544.098 429 485 369.902 485 297Z" stroke="#FFFFFF" stroke-width="27.5" stroke-miterlimit="8" fill="none" fill-rule="evenodd"/><path d="M1205 417.5C1205 344.322 1264.1 285 1337 285 1409.9 285 1469 344.322 1469 417.5 1469 490.678 1409.9 550 1337 550 1264.1 550 1205 490.678 1205 417.5Z" stroke="#FFFFFF" stroke-width="27.5" stroke-miterlimit="8" fill="none" fill-rule="evenodd"/><g clip-path="url(#clip2)" filter="url(#fx0)" transform="translate(109 1424)"><g clip-path="url(#clip3)"><path d="M105.346-123.322 105.346 0 77.3144 0 77.2764-83.2559 66.1172 0 46.2363 0 34.4678-81.3516 34.4297 0 6.39844 0 6.39844-123.322 47.8931-123.322C49.1237-115.908 50.3925-107.169 51.6993-97.1049L56.2529-65.7363 63.6226-123.322ZM186.9-48.75 147.062-48.75 147.062-26.8887C147.062-22.3184 147.393-19.373 148.053-18.0527 148.713-16.7324 149.982-16.0723 151.861-16.0723 154.197-16.0723 155.759-16.9482 156.546-18.7002 157.333-20.4521 157.727-23.8418 157.727-28.8691L157.727-42.1992 186.9-42.1992 186.9-34.7344C186.9-28.4883 186.507-23.6895 185.72-20.3379 184.933-16.9863 183.092-13.4062 180.197-9.59766 177.303-5.78906 173.634-2.93262 169.19-1.02832 164.747 0.875976 159.174 1.82812 152.471 1.82812 145.971 1.82812 140.232 0.888672 135.256-0.990234 130.279-2.86914 126.407-5.44629 123.64-8.72168 120.872-11.9971 118.955-15.6025 117.889-19.5381 116.822-23.4736 116.289-29.1992 116.289-36.7148L116.289-66.1934C116.289-75.0293 117.482-81.999 119.869-87.1025 122.256-92.206 126.166-96.1162 131.6-98.833 137.033-101.55 143.279-102.908 150.338-102.908 158.971-102.908 166.093-101.271 171.704-97.9951 177.315-94.7197 181.251-90.3779 183.511-84.9697 185.77-79.5615 186.9-71.957 186.9-62.1562ZM156.051-65.2031 156.051-72.5918C156.051-77.8223 155.771-81.1992 155.213-82.7226 154.654-84.2461 153.512-85.0078 151.785-85.0078 149.652-85.0078 148.332-84.3603 147.824-83.0654 147.316-81.7705 147.062-78.2793 147.062-72.5918L147.062-65.2031ZM228.145-101.08 227.612-91.7681C229.846-95.4814 232.576-98.2665 235.8-100.123 239.025-101.98 242.745-102.908 246.96-102.908 252.241-102.908 256.557-101.664 259.909-99.1758 263.26-96.6875 265.419-93.5518 266.383-89.7685 267.348-85.9853 267.831-79.6758 267.831-70.8398L267.831 0 237.057 0 237.057-70.0019C237.057-76.959 236.829-81.1992 236.372-82.7226 235.915-84.2461 234.645-85.0078 232.563-85.0078 230.38-85.0078 229.008-84.1318 228.45-82.3799 227.891-80.6279 227.612-75.9434 227.612-68.3262L227.612 0 196.839 0 196.839-101.08ZM310.642-114.562 310.642-98.6426 318.945-98.6426 318.945-82.6465 310.642-82.6465 310.642-28.5645C310.642-21.9121 310.985-18.2051 311.67-17.4434 312.356-16.6816 315.212-16.3008 320.24-16.3008L320.24 0 307.824 0C300.816 0 295.814-0.291992 292.818-0.875977 289.822-1.45996 287.181-2.80566 284.896-4.91309 282.611-7.02051 281.189-9.43262 280.63-12.1494 280.072-14.8662 279.792-21.2519 279.792-31.3066L279.792-82.6465 273.165-82.6465 273.165-98.6426 279.792-98.6426 279.792-114.562ZM395.366-65.584 395.366-40.8281C395.366-31.7383 394.909-25.0732 393.995-20.833 393.081-16.5928 391.126-12.6318 388.13-8.95019 385.133-5.26855 381.287-2.55176 376.59-0.799805 371.892 0.952148 366.497 1.82812 360.403 1.82812 353.598 1.82812 347.835 1.0791 343.112-0.418945 338.389-1.91699 334.72-4.17676 332.105-7.19824 329.49-10.2197 327.624-13.876 326.507-18.167 325.389-22.458 324.831-28.8945 324.831-37.4766L324.831-63.375C324.831-72.7695 325.846-80.1074 327.878-85.3887 329.909-90.6699 333.565-94.9101 338.846-98.1094 344.128-101.309 350.882-102.908 359.108-102.908 366.014-102.908 371.943-101.88 376.894-99.8232 381.845-97.7666 385.667-95.0879 388.358-91.7871 391.049-88.4863 392.89-85.084 393.881-81.5801 394.871-78.0762 395.366-72.7441 395.366-65.584ZM364.592-73.2012C364.592-78.3809 364.313-81.6435 363.755-82.9893 363.196-84.335 362.003-85.0078 360.174-85.0078 358.346-85.0078 357.128-84.335 356.518-82.9893 355.909-81.6435 355.604-78.3809 355.604-73.2012L355.604-27.5742C355.604-22.8008 355.909-19.6904 356.518-18.2432 357.128-16.7959 358.321-16.0723 360.098-16.0723 361.926-16.0723 363.132-16.7324 363.716-18.0527 364.3-19.373 364.592-22.2168 364.592-26.584ZM436.154-101.08 434.935-87.7881C439.404-97.308 445.878-102.348 454.359-102.908L454.359-67.3359C448.722-67.3359 444.583-66.5742 441.943-65.0508 439.302-63.5273 437.677-61.4072 437.068-58.6904 436.458-55.9736 436.154-49.7148 436.154-39.9141L436.154 0 405.38 0 405.38-101.08ZM557.312-85.998 527.529-85.998 527.529-95.1387C527.529-99.4043 527.148-102.121 526.387-103.289 525.625-104.457 524.355-105.041 522.578-105.041 520.648-105.041 519.188-104.253 518.198-102.678 517.208-101.102 516.713-98.714 516.713-95.5124 516.713-91.3967 517.269-88.2971 518.383-86.2135 519.446-84.1298 522.467-81.6166 527.445-78.6736 541.72-70.2011 550.711-63.248 554.418-57.8144 558.125-52.3809 559.978-43.6211 559.978-31.5352 559.978-22.75 558.95-16.2754 556.893-12.1113 554.837-7.94727 550.863-4.45605 544.973-1.6377 539.082 1.18066 532.226 2.58984 524.406 2.58984 515.824 2.58984 508.499 0.964844 502.431-2.28516 496.362-5.53516 492.389-9.67383 490.51-14.7012 488.631-19.7285 487.691-26.8633 487.691-36.1055L487.691-44.1797 517.475-44.1797 517.475-29.1738C517.474-24.5527 517.893-21.582 518.731-20.2617 519.569-18.9414 521.055-18.2812 523.187-18.2812 525.32-18.2812 526.907-19.1191 527.948-20.7949 528.989-22.4707 529.51-24.959 529.51-28.2598 529.51-35.5215 528.519-40.2695 526.539-42.5039 524.508-44.7383 519.506-48.4707 511.533-53.7012 503.56-58.9824 498.279-62.8164 495.689-65.2031 493.1-67.5898 490.954-70.8906 489.253-75.1055 487.552-79.3203 486.701-84.7031 486.701-91.2539 486.701-100.699 487.907-107.605 490.319-111.973 492.731-116.34 496.629-119.755 502.012-122.218 507.394-124.681 513.894-125.912 521.512-125.912 529.84-125.912 536.936-124.566 542.802-121.875 548.667-119.184 552.552-115.794 554.456-111.706 556.36-107.618 557.312-100.674 557.312-90.873ZM601.684-114.562 601.684-98.6426 609.986-98.6426 609.986-82.6465 601.684-82.6465 601.684-28.5645C601.684-21.9121 602.026-18.2051 602.712-17.4434 603.397-16.6816 606.254-16.3008 611.281-16.3008L611.281 0 598.865 0C591.857 0 586.855-0.291992 583.859-0.875977 580.863-1.45996 578.223-2.80566 575.937-4.91309 573.652-7.02051 572.23-9.43262 571.672-12.1494 571.113-14.8662 570.834-21.2519 570.834-31.3066L570.834-82.6465 564.207-82.6465 564.207-98.6426 570.834-98.6426 570.834-114.562ZM687.245-101.08 687.245 0 655.939 0 656.472-8.39795C654.339-4.98926 651.711-2.43274 648.588-0.728393 645.465 0.975952 641.872 1.82812 637.81 1.82812 633.189 1.82812 629.355 1.01562 626.308-0.609375 623.261-2.23437 621.014-4.39258 619.567-7.08398 618.119-9.77539 617.218-12.5811 616.863-15.501 616.507-18.4209 616.329-24.2227 616.329-32.9062L616.329-101.08 647.103-101.08 647.103-32.2969C647.103-24.4258 647.344-19.7539 647.826-18.2812 648.309-16.8086 649.616-16.0723 651.749-16.0723 654.034-16.0723 655.393-16.834 655.824-18.3574 656.256-19.8809 656.472-24.7812 656.472-33.0586L656.472-101.08ZM768.143-123.322 768.143 0 737.369 0 737.369-7.33154C734.424-4.27832 731.326-1.9884 728.076-0.461792 724.826 1.06482 721.424 1.82812 717.869 1.82812 713.096 1.82812 708.957 0.571289 705.453-1.94238 701.949-4.45605 699.702-7.36328 698.712-10.6641 697.722-13.9648 697.226-19.3477 697.227-26.8125L697.227-74.1152C697.226-81.8848 697.722-87.3945 698.712-90.6445 699.702-93.8945 701.974-96.751 705.529-99.2139 709.084-101.677 713.324-102.908 718.25-102.908 722.058-102.908 725.55-102.221 728.724-100.847 731.897-99.4725 734.779-97.4111 737.369-94.6626L737.369-123.322ZM737.369-75.6387C737.369-79.3457 737.052-81.834 736.417-83.1035 735.782-84.373 734.525-85.0078 732.646-85.0078 730.818-85.0078 729.587-84.4365 728.952-83.2939 728.317-82.1514 728-79.5996 728-75.6387L728-26.127C728-22.0137 728.305-19.3096 728.914-18.0146 729.523-16.7197 730.691-16.0723 732.418-16.0723 734.398-16.0723 735.719-16.7959 736.379-18.2432 737.039-19.6904 737.369-23.2324 737.369-28.8691ZM848.619-48.75 808.781-48.75 808.781-26.8887C808.781-22.3184 809.111-19.373 809.771-18.0527 810.432-16.7324 811.701-16.0723 813.58-16.0723 815.916-16.0723 817.477-16.9482 818.265-18.7002 819.052-20.4521 819.445-23.8418 819.445-28.8691L819.445-42.1992 848.619-42.1992 848.619-34.7344C848.619-28.4883 848.226-23.6895 847.438-20.3379 846.651-16.9863 844.81-13.4062 841.916-9.59766 839.021-5.78906 835.352-2.93262 830.909-1.02832 826.466 0.875976 820.893 1.82812 814.189 1.82812 807.689 1.82812 801.951 0.888672 796.975-0.990234 791.998-2.86914 788.126-5.44629 785.358-8.72168 782.591-11.9971 780.674-15.6025 779.607-19.5381 778.541-23.4736 778.008-29.1992 778.008-36.7148L778.008-66.1934C778.008-75.0293 779.201-81.999 781.588-87.1025 783.975-92.206 787.885-96.1162 793.318-98.833 798.752-101.55 804.998-102.908 812.057-102.908 820.689-102.908 827.811-101.271 833.423-97.9951 839.034-94.7197 842.97-90.3779 845.229-84.9697 847.489-79.5615 848.619-71.957 848.619-62.1562ZM817.769-65.2031 817.769-72.5918C817.769-77.8223 817.49-81.1992 816.932-82.7226 816.373-84.2461 815.23-85.0078 813.504-85.0078 811.371-85.0078 810.051-84.3603 809.543-83.0654 809.035-81.7705 808.781-78.2793 808.781-72.5918L808.781-65.2031ZM889.864-101.08 889.331-91.7681C891.565-95.4814 894.295-98.2665 897.519-100.123 900.744-101.98 904.464-102.908 908.678-102.908 913.96-102.908 918.276-101.664 921.628-99.1758 924.979-96.6875 927.137-93.5518 928.102-89.7685 929.067-85.9853 929.549-79.6758 929.549-70.8398L929.549 0 898.776 0 898.776-70.0019C898.776-76.959 898.547-81.1992 898.09-82.7226 897.633-84.2461 896.364-85.0078 894.282-85.0078 892.098-85.0078 890.727-84.1318 890.169-82.3799 889.61-80.6279 889.331-75.9434 889.331-68.3262L889.331 0 858.557 0 858.557-101.08ZM972.361-114.562 972.361-98.6426 980.663-98.6426 980.663-82.6465 972.361-82.6465 972.361-28.5645C972.361-21.9121 972.703-18.2051 973.389-17.4434 974.075-16.6816 976.931-16.3008 981.958-16.3008L981.958 0 969.542 0C962.534 0 957.533-0.291992 954.536-0.875977 951.54-1.45996 948.9-2.80566 946.615-4.91309 944.329-7.02051 942.908-9.43262 942.349-12.1494 941.79-14.8662 941.511-21.2519 941.511-31.3066L941.511-82.6465 934.884-82.6465 934.884-98.6426 941.511-98.6426 941.511-114.562ZM1090.75-69.6211 1058.69-69.6211 1058.69-91.0551C1058.69-97.2877 1058.34-101.177 1057.66-102.723 1056.97-104.268 1055.46-105.041 1053.13-105.041 1050.48-105.041 1048.81-104.102 1048.1-102.223 1047.39-100.344 1047.03-96.2812 1047.03-90.0351L1047.03-32.7539C1047.03-26.7617 1047.39-22.8516 1048.1-21.0234 1048.81-19.1953 1050.41-18.2812 1052.9-18.2812 1055.28-18.2812 1056.85-19.1975 1057.58-21.03 1058.32-22.8625 1058.69-27.164 1058.69-33.9346L1058.69-49.4355 1090.75-49.4355 1090.75-44.6296C1090.75-31.8652 1089.85-22.8131 1088.05-17.4731 1086.25-12.1331 1082.26-7.45433 1076.09-3.43666 1069.92 0.581009 1062.32 2.58984 1053.28 2.58984 1043.88 2.58984 1036.14 0.888672 1030.05-2.51367 1023.95-5.91601 1019.91-10.626 1017.93-16.6436 1015.95-22.6611 1014.96-31.7129 1014.96-43.7988L1014.96-79.8281C1014.96-88.7148 1015.27-95.3799 1015.88-99.8232 1016.49-104.267 1018.3-108.545 1021.32-112.658 1024.35-116.771 1028.53-120.009 1033.89-122.37 1039.25-124.731 1045.41-125.912 1052.36-125.912 1061.81-125.912 1069.6-124.086 1075.75-120.435 1081.89-116.783 1085.93-112.232 1087.86-106.78 1089.79-101.329 1090.75-92.8476 1090.75-81.3361ZM1171.09-65.584 1171.09-40.8281C1171.09-31.7383 1170.64-25.0732 1169.72-20.833 1168.81-16.5928 1166.85-12.6318 1163.86-8.95019 1160.86-5.26855 1157.02-2.55176 1152.32-0.799805 1147.62 0.952148 1142.23 1.82812 1136.13 1.82812 1129.33 1.82812 1123.56 1.0791 1118.84-0.418945 1114.12-1.91699 1110.45-4.17676 1107.83-7.19824 1105.22-10.2197 1103.35-13.876 1102.24-18.167 1101.12-22.458 1100.56-28.8945 1100.56-37.4766L1100.56-63.375C1100.56-72.7695 1101.58-80.1074 1103.61-85.3887 1105.64-90.6699 1109.29-94.9101 1114.58-98.1094 1119.86-101.309 1126.61-102.908 1134.84-102.908 1141.74-102.908 1147.67-101.88 1152.62-99.8232 1157.57-97.7666 1161.4-95.0879 1164.09-91.7871 1166.78-88.4863 1168.62-85.084 1169.61-81.5801 1170.6-78.0762 1171.09-72.7441 1171.09-65.584ZM1140.32-73.2012C1140.32-78.3809 1140.04-81.6435 1139.48-82.9893 1138.93-84.335 1137.73-85.0078 1135.9-85.0078 1134.08-85.0078 1132.86-84.335 1132.25-82.9893 1131.64-81.6435 1131.33-78.3809 1131.33-73.2012L1131.33-27.5742C1131.33-22.8008 1131.64-19.6904 1132.25-18.2432 1132.86-16.7959 1134.05-16.0723 1135.83-16.0723 1137.66-16.0723 1138.86-16.7324 1139.45-18.0527 1140.03-19.373 1140.32-22.2168 1140.32-26.584ZM1212.42-101.08 1211.88-91.7681C1214.12-95.4814 1216.85-98.2665 1220.07-100.123 1223.3-101.98 1227.02-102.908 1231.23-102.908 1236.51-102.908 1240.83-101.664 1244.18-99.1758 1247.53-96.6875 1249.69-93.5518 1250.65-89.7685 1251.62-85.9853 1252.1-79.6758 1252.1-70.8398L1252.1 0 1221.33 0 1221.33-70.0019C1221.33-76.959 1221.1-81.1992 1220.64-82.7226 1220.19-84.2461 1218.92-85.0078 1216.83-85.0078 1214.65-85.0078 1213.28-84.1318 1212.72-82.3799 1212.16-80.6279 1211.88-75.9434 1211.88-68.3262L1211.88 0 1181.11 0 1181.11-101.08ZM1293.77-101.08 1293.24-91.7681C1295.47-95.4814 1298.2-98.2665 1301.43-100.123 1304.65-101.98 1308.37-102.908 1312.58-102.908 1317.87-102.908 1322.18-101.664 1325.53-99.1758 1328.89-96.6875 1331.04-93.5518 1332.01-89.7685 1332.97-85.9853 1333.46-79.6758 1333.46-70.8398L1333.46 0 1302.68 0 1302.68-70.0019C1302.68-76.959 1302.45-81.1992 1302-82.7226 1301.54-84.2461 1300.27-85.0078 1298.19-85.0078 1296-85.0078 1294.63-84.1318 1294.07-82.3799 1293.52-80.6279 1293.24-75.9434 1293.24-68.3262L1293.24 0 1262.46 0 1262.46-101.08ZM1413.51-48.75 1373.68-48.75 1373.68-26.8887C1373.68-22.3184 1374.01-19.373 1374.67-18.0527 1375.33-16.7324 1376.6-16.0723 1378.48-16.0723 1380.81-16.0723 1382.37-16.9482 1383.16-18.7002 1383.95-20.4521 1384.34-23.8418 1384.34-28.8691L1384.34-42.1992 1413.51-42.1992 1413.51-34.7344C1413.51-28.4883 1413.12-23.6895 1412.33-20.3379 1411.55-16.9863 1409.71-13.4062 1406.81-9.59766 1403.92-5.78906 1400.25-2.93262 1395.8-1.02832 1391.36 0.875976 1385.79 1.82812 1379.09 1.82812 1372.59 1.82812 1366.85 0.888672 1361.87-0.990234 1356.89-2.86914 1353.02-5.44629 1350.25-8.72168 1347.49-11.9971 1345.57-15.6025 1344.5-19.5381 1343.44-23.4736 1342.9-29.1992 1342.9-36.7148L1342.9-66.1934C1342.9-75.0293 1344.1-81.999 1346.48-87.1025 1348.87-92.206 1352.78-96.1162 1358.21-98.833 1363.65-101.55 1369.89-102.908 1376.95-102.908 1385.59-102.908 1392.71-101.271 1398.32-97.9951 1403.93-94.7197 1407.87-90.3779 1410.13-84.9697 1412.38-79.5615 1413.51-71.957 1413.51-62.1562ZM1382.67-65.2031 1382.67-72.5918C1382.67-77.8223 1382.39-81.1992 1381.83-82.7226 1381.27-84.2461 1380.13-85.0078 1378.4-85.0078 1376.27-85.0078 1374.95-84.3603 1374.44-83.0654 1373.93-81.7705 1373.68-78.2793 1373.68-72.5918L1373.68-65.2031ZM1491.47-62.918 1462.45-62.918 1462.45-74.5723C1462.45-78.6348 1462.12-81.3896 1461.46-82.8369 1460.8-84.2842 1459.58-85.0078 1457.81-85.0078 1456.03-85.0078 1454.84-84.373 1454.23-83.1035 1453.62-81.834 1453.31-78.9902 1453.31-74.5723L1453.31-26.8887C1453.31-23.2832 1453.77-20.5791 1454.68-18.7764 1455.6-16.9736 1456.94-16.0723 1458.72-16.0723 1460.8-16.0723 1462.21-17.0117 1462.95-18.8906 1463.68-20.7695 1464.05-24.3242 1464.05-29.5547L1464.05-41.5898 1491.47-41.5898C1491.42-33.5156 1491.13-27.46 1490.6-23.4228 1490.07-19.3857 1488.36-15.2471 1485.49-11.0068 1482.63-6.7666 1478.88-3.56738 1474.26-1.40918 1469.64 0.749023 1463.93 1.82812 1457.12 1.82812 1448.44 1.82812 1441.56 0.342773 1436.48-2.62793 1431.4-5.59863 1427.81-9.76269 1425.7-15.1201 1423.59-20.4775 1422.54-28.082 1422.54-37.9336L1422.54-66.6504C1422.54-75.2324 1423.4-81.707 1425.13-86.0742 1426.86-90.4414 1430.54-94.3389 1436.17-97.7666 1441.81-101.194 1448.67-102.908 1456.74-102.908 1464.76-102.908 1471.62-101.207 1477.31-97.8047 1482.99-94.4023 1486.78-90.1113 1488.66-84.9316 1490.53-79.7519 1491.47-72.4141 1491.47-62.918ZM1533.25-114.562 1533.25-98.6426 1541.55-98.6426 1541.55-82.6465 1533.25-82.6465 1533.25-28.5645C1533.25-21.9121 1533.59-18.2051 1534.27-17.4434 1534.96-16.6816 1537.82-16.3008 1542.84-16.3008L1542.84 0 1530.43 0C1523.42 0 1518.42-0.291992 1515.42-0.875977 1512.43-1.45996 1509.78-2.80566 1507.5-4.91309 1505.21-7.02051 1503.79-9.43262 1503.23-12.1494 1502.68-14.8662 1502.4-21.2519 1502.4-31.3066L1502.4-82.6465 1495.77-82.6465 1495.77-98.6426 1502.4-98.6426 1502.4-114.562Z" fill="#E0AA4E" transform="matrix(1 0 0 1 103.207 212)"/></g></g><text fill="#E0AA4E" font-family="Impact,Impact_MSFontService,sans-serif" font-weight="400" font-stretch="condensed" font-size="156" transform="matrix(1 0 0 1 209.226 1633)">Mentor Student Connect</text></g></svg>