<svg width="79" height="78" xmlns="http://www.w3.org/2000/svg" xmlns:xlink="http://www.w3.org/1999/xlink" overflow="hidden"><defs><clipPath id="clip0"><rect x="825" y="306" width="79" height="78"/></clipPath></defs><g clip-path="url(#clip0)" transform="translate(-825 -306)"><path d="M52 24.375C52 31.5547 46.1797 37.375 39 37.375 31.8203 37.375 26 31.5547 26 24.375 26 17.1953 31.8203 11.375 39 11.375 46.1797 11.375 52 17.1953 52 24.375Z" fill="#005467" transform="matrix(1.01282 0 0 1 825 306)"/><path d="M65 66.625 65 53.625C65 51.675 64.025 49.725 62.4 48.425 58.825 45.5 54.275 43.55 49.725 42.25 46.475 41.275 42.9 40.625 39 40.625 35.425 40.625 31.85 41.275 28.275 42.25 23.725 43.55 19.175 45.825 15.6 48.425 13.975 49.725 13 51.675 13 53.625L13 66.625 65 66.625Z" fill="#005467" transform="matrix(1.01282 0 0 1 825 306)"/></g></svg>