<svg width="16" height="36" xmlns="http://www.w3.org/2000/svg" xmlns:xlink="http://www.w3.org/1999/xlink" overflow="hidden"><defs><clipPath id="clip0"><rect x="1123" y="214" width="16" height="36"/></clipPath></defs><g clip-path="url(#clip0)" transform="translate(-1123 -214)"><path d="M198.698 39.907C198.698 35.9511 201.905 32.7442 205.86 32.7442 209.816 32.7442 213.023 35.9511 213.023 39.907 213.023 43.8629 209.816 47.0698 205.86 47.0698 201.905 47.0698 198.698 43.8629 198.698 39.907Z" stroke="#FFFFFF" stroke-width="1.48837" stroke-miterlimit="8" fill="none" fill-rule="evenodd" transform="matrix(1 0 0 1.00259 925.047 181.917)"/><path d="M205.86 47.0698C209.816 47.0698 213.023 50.2807 213.023 54.2417L213.023 66.9767 198.698 66.9767 198.698 54.2417C198.698 50.2807 201.905 47.0698 205.86 47.0698Z" stroke="#FFFFFF" stroke-width="1.48837" stroke-miterlimit="8" fill="none" fill-rule="evenodd" transform="matrix(1 0 0 1.00259 925.047 181.917)"/></g></svg>